# xmcd CD database file
#
# Track frame offsets:
#	150
#	20350
#	38087
#	48662
#	61349
#	68874
#	86861
#	103386
#	123336
#	143002
#	158214
#	169052
#	194539
#	203477
#	225746
#	247034
#	259359
#	277684
#	287296
#
# Disc length: 4069 seconds
#
# Revision: 4
# Processed by: cddbd v1.5.2PL0 Copyright (c) Steve Scherf et al.
# Submitted via: CDex 1.50
#
DISCID=120fe313
DTITLE=Barbara - Marienbad
DYEAR=1973
DGENRE=Chanson
TTITLE0=Amours incestueuses
TTITLE1=La Bourreau
TTITLE2=Printemps
TTITLE3=Remusat
TTITLE4=Colère
TTITLE5=Perlimpinpin
TTITLE6=Accident
TTITLE7=La Ligne droite
TTITLE8=Claire de nuit
TTITLE9=L'Enfant laboureur
TTITLE10=Le Minotaure
TTITLE11=Là-bas
TTITLE12=Les Hautes Mers
TTITLE13=Musique pour une absente
TTITLE14=Marienbad
TTITLE15=La Louve
TTITLE16=Monsieur Capone
TTITLE17=Ma Maison
TTITLE18=Je t'aime
EXTD=YEAR: 1973
EXTT0=
EXTT1=
EXTT2=
EXTT3=
EXTT4=
EXTT5=
EXTT6=
EXTT7=
EXTT8=
EXTT9=
EXTT10=
EXTT11=
EXTT12=
EXTT13=
EXTT14=
EXTT15=
EXTT16=
EXTT17=
EXTT18=
PLAYORDER=
